<svg xmlns="http://www.w3.org/2000/svg" width="900" height="260" viewBox="0 0 900 260" role="img" aria-label="How I focus">
  <rect x="0" y="0" width="430" height="110" rx="14" fill="#121a17" stroke="#2a3a34"/>
  <rect x="0" y="0" width="430" height="4" rx="2" fill="#296572"/>
  <text x="22" y="32" fill="#a59264" font-family="Segoe UI, Helvetica, Arial, sans-serif" font-size="11" font-weight="600" letter-spacing="1">DELIVERY</text>
  <text x="22" y="58" fill="#e8f0eb" font-family="Segoe UI, Helvetica, Arial, sans-serif" font-size="16" font-weight="700">Ship with clarity</text>
  <text x="22" y="82" fill="#9aafa4" font-family="Segoe UI, Helvetica, Arial, sans-serif" font-size="13">Scope, timelines, testing, and go-live</text>

  <rect x="470" y="0" width="430" height="110" rx="14" fill="#121a17" stroke="#2a3a34"/>
  <rect x="470" y="0" width="430" height="4" rx="2" fill="#a59264"/>
  <text x="492" y="32" fill="#a59264" font-family="Segoe UI, Helvetica, Arial, sans-serif" font-size="11" font-weight="600" letter-spacing="1">ARCHITECTURE</text>
  <text x="492" y="58" fill="#e8f0eb" font-family="Segoe UI, Helvetica, Arial, sans-serif" font-size="16" font-weight="700">Design that scales</text>
  <text x="492" y="82" fill="#9aafa4" font-family="Segoe UI, Helvetica, Arial, sans-serif" font-size="13">APIs, EF Core, Blazor, SQL Server models</text>

  <rect x="0" y="130" width="430" height="110" rx="14" fill="#121a17" stroke="#2a3a34"/>
  <rect x="0" y="130" width="430" height="4" rx="2" fill="#a59264"/>
  <text x="22" y="162" fill="#a59264" font-family="Segoe UI, Helvetica, Arial, sans-serif" font-size="11" font-weight="600" letter-spacing="1">CLOUD</text>
  <text x="22" y="188" fill="#e8f0eb" font-family="Segoe UI, Helvetica, Arial, sans-serif" font-size="16" font-weight="700">Deliver on Azure</text>
  <text x="22" y="212" fill="#9aafa4" font-family="Segoe UI, Helvetica, Arial, sans-serif" font-size="13">Container Apps, Key Vault, DevOps, Docker</text>

  <rect x="470" y="130" width="430" height="110" rx="14" fill="#121a17" stroke="#2a3a34"/>
  <rect x="470" y="130" width="430" height="4" rx="2" fill="#296572"/>
  <text x="492" y="162" fill="#a59264" font-family="Segoe UI, Helvetica, Arial, sans-serif" font-size="11" font-weight="600" letter-spacing="1">LEADERSHIP</text>
  <text x="492" y="188" fill="#e8f0eb" font-family="Segoe UI, Helvetica, Arial, sans-serif" font-size="16" font-weight="700">Align people + tech</text>
  <text x="492" y="212" fill="#9aafa4" font-family="Segoe UI, Helvetica, Arial, sans-serif" font-size="13">Direction, estimation, stakeholder clarity</text>
</svg>
