<?xml version="1.0" encoding="UTF-8"?>
<svg xmlns="http://www.w3.org/2000/svg" viewBox="0 0 225.5 151.5" fill-rule="evenodd" role="img" aria-label="EA">
  <path fill="#296572" d="M156.0,99.0L156.0,101.5L157.0,102.0L157.0,104.5L158.0,105.0L158.0,107.5L159.0,108.0L159.0,110.5L160.0,111.0L160.0,114.5L161.0,115.0L161.0,117.5L162.0,118.0L162.0,120.5L163.0,121.0L163.0,123.5L164.0,124.0L164.0,126.5L165.0,127.0L165.0,129.5L166.0,130.0L166.0,132.5L167.0,133.0L167.0,135.5L168.0,136.0L168.0,138.5L169.0,139.0L169.0,141.5L170.0,142.0L170.0,143.5L171.5,143.5L172.0,144.0L171.0,145.5L198.5,145.5L198.5,145.0L197.5,144.5L197.5,144.0L198.5,143.5L198.5,142.0L197.5,141.5L197.5,139.0L196.5,138.5L196.5,137.0L195.0,137.0L194.5,136.5L194.5,136.0L195.5,135.5L195.5,133.0L194.5,132.5L194.5,131.0L193.5,130.5L193.5,128.0L192.5,127.5L192.5,125.0L191.5,124.5L191.5,123.0L190.5,122.5L190.5,120.0L189.5,119.5L189.5,117.0L188.5,116.5L188.5,114.0L187.5,113.5L187.5,111.0L186.5,110.5L186.5,108.0L185.5,107.5L185.5,106.0L184.5,105.5L184.5,103.0L183.5,102.5L183.5,99.0L182.5,98.5L182.5,97.0L181.5,96.5L181.5,95.0L177.0,95.0L176.5,96.0L171.0,96.0L170.5,97.0L165.0,97.0L163.5,99.0L163.0,99.0L162.5,98.0L158.0,98.0L158.0,98.5L159.0,99.0L158.5,100.0L157.0,100.0L156.5,99.0Z"/>
  <path fill="#296572" d="M6.0,6.0L7.0,145.5L101.5,145.5L109.5,120.0L115.5,112.5L115.5,104.0L121.5,93.5L117.5,94.5L125.5,71.5L124.5,68.0L126.5,67.5L125.5,65.0L127.5,64.5L126.5,62.0L128.5,61.5L127.5,59.0L129.5,58.5L131.5,52.5L130.5,49.0L132.5,48.5L131.5,45.0L133.5,44.5L136.0,36.5L140.0,46.0L140.0,49.5L142.0,50.0L141.0,52.5L149.0,77.5L150.5,78.5L174.5,75.5L170.5,62.0L168.5,61.5L169.5,59.0L150.5,6.0L122.0,6.0L104.0,58.0L105.0,60.5L103.0,61.0L101.0,69.5L99.0,72.0L100.0,76.5L98.0,76.0L97.0,78.0L98.0,80.5L96.0,81.0L97.0,83.5L95.0,84.0L83.0,121.5L81.5,123.0L33.0,123.0L32.5,84.0L37.0,82.5L75.5,83.5L76.5,61.0L33.0,61.0L32.5,29.0L83.5,27.5L83.5,6.0Z"/>
  <path fill="#A59264" d="M215.5,25.0L208.5,18.0L207.0,18.0L202.5,15.0L200.0,15.0L199.5,14.0L189.0,14.0L188.5,15.0L185.0,16.0L181.0,21.0L181.0,23.5L180.0,24.0L180.0,30.5L181.0,31.0L182.0,35.5L177.5,39.0L171.0,39.0L171.0,40.5L172.5,40.5L174.0,42.5L176.5,42.5L177.0,43.5L184.5,43.5L185.0,42.5L187.5,42.5L188.0,41.5L191.5,40.5L194.0,37.5L195.5,37.5L199.5,32.5L199.5,31.0L200.5,30.5L200.5,24.0L201.5,23.5L203.0,25.0L202.0,38.5L206.0,43.5L208.5,43.5L210.0,45.0L207.0,48.0L207.0,49.5L205.0,52.0L205.0,60.5L206.0,61.0L206.0,62.5L204.0,63.0L203.0,62.0L202.5,63.0L201.0,63.0L196.0,68.0L194.5,74.0L192.0,72.0L184.5,77.0L182.0,77.0L178.5,79.0L175.0,79.0L174.5,80.0L168.0,80.0L167.5,81.0L159.0,81.0L158.5,82.0L145.0,83.0L147.5,83.5L148.0,84.5L144.0,85.0L143.5,84.0L140.0,84.0L142.5,84.5L143.0,85.5L139.0,86.0L138.5,85.0L137.0,85.0L139.0,86.5L135.0,87.0L134.0,86.0L135.0,87.0L134.5,88.0L131.0,87.0L132.0,88.0L131.5,89.0L129.0,88.0L130.0,89.0L129.5,90.0L128.0,90.0L127.5,89.0L127.5,91.0L125.0,90.0L126.0,91.5L124.5,93.0L122.0,92.0L123.0,93.5L120.0,96.0L121.0,97.0L120.0,98.0L120.0,100.5L121.0,101.5L122.0,100.5L123.0,101.5L128.5,101.5L129.0,100.5L131.5,100.5L132.5,101.5L131.5,100.5L132.0,99.5L135.5,100.5L136.0,99.5L137.5,99.5L136.5,98.5L137.0,97.5L140.5,98.5L141.0,97.5L143.5,97.5L144.0,95.5L145.0,96.5L147.5,96.5L145.5,95.5L146.0,94.5L151.5,95.5L149.0,95.0L149.0,93.5L157.5,94.5L155.0,94.0L154.5,93.0L158.5,92.5L159.0,93.5L164.5,93.5L165.0,92.5L175.5,91.5L176.0,89.5L179.5,90.5L180.0,88.5L181.5,88.5L182.0,89.5L186.5,88.5L187.0,87.5L192.5,85.5L193.0,83.5L194.5,84.5L195.0,83.5L198.5,82.5L200.0,80.5L201.5,80.5L211.5,70.5L212.5,67.0L214.5,65.5L214.5,64.0L216.5,61.5L216.5,59.0L218.5,55.5L218.5,52.0L219.5,51.5L219.5,35.0L218.5,34.5L218.5,32.0L217.5,31.5L217.5,29.0L216.5,28.5Z"/>
</svg>
